HIERARCHY
ROOT Hips
{
	OFFSET 0.00 0.00 0.00
	CHANNELS 6 Xposition Yposition Zposition Xrotation Yrotation Zrotation
	JOINT LeftUpLeg
	{
		OFFSET 3.78105 0.00000 0.00000
		CHANNELS 3 Xrotation Yrotation Zrotation
		JOINT LeftLeg
		{
			OFFSET 0.00000 -16.26276 0.00000
			CHANNELS 3 Xrotation Yrotation Zrotation
			JOINT LeftFoot
			{
				OFFSET 0.00000 -15.82304 0.00000
				CHANNELS 3 Xrotation Yrotation Zrotation
				JOINT LeftToeBase
				{
					OFFSET 0.00000 -1.62057 6.04805
					CHANNELS 3 Xrotation Yrotation Zrotation
					End Site
					{
						OFFSET 0.00000 0.00000 2.95275
					}
				}
			}
		}
	}
	JOINT RightUpLeg
	{
		OFFSET -3.78105 0.00000 0.00000
		CHANNELS 3 Xrotation Yrotation Zrotation
		JOINT RightLeg
		{
			OFFSET 0.00000 -16.26276 0.00000
			CHANNELS 3 Xrotation Yrotation Zrotation
			JOINT RightFoot
			{
				OFFSET 0.00000 -15.82304 0.00000
				CHANNELS 3 Xrotation Yrotation Zrotation
				JOINT RightToeBase
				{
					OFFSET 0.00000 -1.62057 6.04805
					CHANNELS 3 Xrotation Yrotation Zrotation
					End Site
					{
						OFFSET 0.00000 0.00000 2.95275
					}
				}
			}
		}
	}
	JOINT Spine
	{
		OFFSET 0.00000 0.03937 0.00000
		CHANNELS 3 Xrotation Yrotation Zrotation
		JOINT Spine1
		{
			OFFSET 0.00000 7.25908 0.00000
			CHANNELS 3 Xrotation Yrotation Zrotation
			JOINT Neck
			{
				OFFSET 0.00000 10.99958 0.00000
				CHANNELS 3 Xrotation Yrotation Zrotation
				JOINT Head
				{
					OFFSET 0.00000 6.12581 0.00000
					CHANNELS 3 Xrotation Yrotation Zrotation
					End Site
					{
						OFFSET 0.00000 4.52755 0.00000
					}
				}
			}
			JOINT LeftShoulder
			{
				OFFSET 0.00000 10.99958 0.00000
				CHANNELS 3 Xrotation Yrotation Zrotation
				JOINT LeftArm
				{
					OFFSET 7.23802 -0.00003 0.00000
					CHANNELS 3 Xrotation Yrotation Zrotation
					JOINT LeftForeArm
					{
						OFFSET 10.05612 -0.00004 0.00000
						CHANNELS 3 Xrotation Yrotation Zrotation
						JOINT LeftHand
						{
							OFFSET 9.51368 -0.00003 0.00000
							CHANNELS 3 Xrotation Yrotation Zrotation
							JOINT LeftHandThumb
							{
								OFFSET 0.00000 0.00000 0.00000
								CHANNELS 3 Xrotation Yrotation Zrotation
								End Site
								{
									OFFSET 0.00000 0.00000 3.93700
								}
							}
							JOINT L_Wrist_End
							{
								OFFSET 3.93700 -0.00001 0.00000
								CHANNELS 3 Xrotation Yrotation Zrotation
							}
						}
					}
				}
			}
			JOINT RightShoulder
			{
				OFFSET 0.00000 10.99958 0.00000
				CHANNELS 3 Xrotation Yrotation Zrotation
				JOINT RightArm
				{
					OFFSET -7.23802 -0.00003 0.00000
					CHANNELS 3 Xrotation Yrotation Zrotation
					JOINT RightForeArm
					{
						OFFSET -10.05612 -0.00004 0.00000
						CHANNELS 3 Xrotation Yrotation Zrotation
						JOINT RightHand
						{
							OFFSET -9.51368 -0.00003 0.00000
							CHANNELS 3 Xrotation Yrotation Zrotation
							JOINT RightHandThumb
							{
								OFFSET 0.00000 0.00000 0.00000
								CHANNELS 3 Xrotation Yrotation Zrotation
								End Site
								{
									OFFSET 0.00000 0.00000 3.93700
								}
							}
							JOINT R_Wrist_End
							{
								OFFSET -5.39369 -0.00002 0.00000
								CHANNELS 3 Xrotation Yrotation Zrotation
							}
						}
					}
				}
			}
		}
	}
}
MOTION
Frames: 17
Frame Time: 0.033332
 -54.0776 33.6114 15.3990 9.3302 -1.5729 -0.3345 -25.4870 6.2243 2.5509 71.5265 -0.0000 0.0000 3.5333 24.0856 -20.1151 12.8901 0.0000 0.0000 -15.9584 -5.4584 2.4936 18.5176 -0.0000 0.0000 -15.5352 -1.2407 8.3338 9.1179 -0.0000 0.0000 -15.5371 2.0166 0.0775 7.1879 -6.3975 3.6307 14.3742 7.1382 -5.3549 -5.6878 -5.8684 0.0349 9.3208 5.6357 -1.7692 -6.2631 -25.4555 -75.9305 -0.0001 -19.8435 -0.0000 -29.1126 -1.3962 0.3188 -0.0000 0.0000 -0.0000 -0.0000 0.0000 -0.0000 -2.4045 -0.9448 -2.4587 8.7658 20.7105 78.2847 -0.0001 16.1682 0.0000 -33.3209 -3.7027 -7.4270 -0.0000 -0.0000 0.0000 -0.0000 -0.0000 0.0000
 -54.1602 33.6959 16.6084 9.0382 -1.9038 0.1565 -29.2638 5.9054 1.9482 70.4635 -0.0000 0.0000 -1.6818 26.5295 -18.8962 11.9087 -0.0000 0.0000 -12.6224 -5.1716 2.2054 16.6087 -0.0000 0.0000 -16.2357 -0.8200 8.1881 8.8044 -0.0000 0.0000 -15.4919 2.6184 0.0206 7.3822 -5.8645 2.9942 14.5288 7.1986 -5.6390 -5.4454 -6.0761 0.1368 9.5606 6.0541 -2.1186 -5.4423 -24.1736 -75.5535 -0.0001 -21.0104 -0.0000 -30.5457 -2.1282 -0.1395 -0.0000 0.0000 -0.0000 -0.0000 0.0000 -0.0000 -3.4291 -0.4837 -2.9156 7.5498 21.2755 77.9211 -0.0001 17.7599 0.0000 -32.8181 -3.5786 -7.3327 -0.0000 -0.0000 0.0000 -0.0000 -0.0000 0.0000
 -54.2345 33.7282 17.7843 8.9059 -2.2414 0.5879 -32.5113 6.0979 1.5508 66.5224 -0.0000 0.0000 -4.8751 29.2064 -17.7334 9.6139 0.0000 -0.0000 -9.2120 -6.1814 1.8624 14.1728 -0.0000 0.0000 -16.8629 0.5681 8.1832 8.7045 -0.0000 0.0000 -15.4624 3.2029 -0.0275 7.5237 -5.3586 2.3412 14.6078 7.2258 -5.8475 -5.3075 -6.2848 0.3737 9.6894 6.2741 -2.3652 -4.4178 -23.3588 -75.0723 -0.0001 -22.3442 -0.0000 -30.7835 -2.3046 -0.3091 -0.0000 0.0000 -0.0000 -0.0000 0.0000 -0.0000 -4.0623 -0.1146 -3.1457 5.9792 21.5682 77.2856 -0.0001 19.5029 0.0000 -33.6002 -3.0611 -7.2111 -0.0000 0.0000 -0.0000 -0.0000 0.0000 -0.0000
 -54.2996 33.7032 18.9516 8.9066 -2.4971 0.9317 -34.8980 6.7747 1.3943 59.7076 -0.0000 0.0000 -6.5398 31.3607 -17.5992 8.4440 0.0000 0.0000 -6.1829 -6.9279 1.5929 12.2490 -0.0000 0.0000 -17.5191 1.5968 8.2815 8.2715 -0.0000 -0.0000 -15.6244 3.6138 -0.0344 7.7795 -5.0444 1.7026 15.0313 7.1710 -6.1004 -5.9029 -6.3669 0.5677 10.2973 6.3299 -2.7041 -3.6414 -23.0508 -74.3533 -0.0001 -23.6580 -0.0000 -30.4945 -2.3215 -0.3080 -0.0000 -0.0000 0.0000 -0.0000 -0.0000 0.0000 -4.1536 0.5465 -3.1828 4.1054 21.8162 76.3995 -0.0001 21.2820 0.0000 -33.8436 -2.5919 -7.6588 -0.0000 -0.0000 0.0000 -0.0000 -0.0000 0.0000
 -54.3640 33.5976 20.1149 8.9121 -2.9344 0.9773 -36.2149 8.1348 1.7394 50.2977 -0.0000 0.0000 -6.9675 31.7410 -17.6405 7.4423 0.0000 -0.0000 -3.5272 -7.0220 1.6253 11.0195 -0.0000 0.0000 -18.4749 2.1297 8.4035 8.6322 -0.0000 0.0000 -15.7654 4.0106 0.1512 8.2946 -4.7703 1.1722 14.6391 7.2993 -6.1128 -5.8966 -6.4036 0.5595 10.0967 6.7362 -2.7776 -2.7561 -22.7993 -74.1079 -0.0001 -24.1971 -0.0000 -29.9385 -2.3268 -0.3969 -0.0000 0.0000 -0.0000 -0.0000 0.0000 -0.0000 -5.0646 0.9286 -3.3419 2.5967 22.2522 75.7690 -0.0001 22.5003 0.0000 -34.2974 -1.9083 -7.4087 -0.0000 0.0000 -0.0000 -0.0000 0.0000 -0.0000
 -54.4285 33.4327 21.2690 9.3370 -3.4693 0.7555 -36.8200 10.1712 2.3011 38.3435 -0.0000 0.0000 -5.5018 30.5099 -19.2906 7.3744 -0.0000 0.0000 -1.6505 -6.6763 1.9034 10.5271 -0.0000 0.0000 -19.3971 2.3306 8.7224 7.4431 -0.0000 0.0000 -15.9124 4.3548 0.3901 8.1595 -4.5121 0.9001 14.6426 7.3715 -6.1572 -5.9939 -6.2996 0.5388 10.4690 6.8961 -2.9379 -2.3168 -22.4646 -73.9105 -0.0001 -24.2164 -0.0000 -30.2478 -2.4914 -0.5694 -0.0000 -0.0000 0.0000 -0.0000 -0.0000 0.0000 -5.5983 1.4794 -3.3666 1.2705 22.5264 75.0269 -0.0001 23.6488 0.0000 -34.0336 -1.6656 -7.6399 -0.0000 0.0000 -0.0000 -0.0000 0.0000 -0.0000
 -54.4981 33.2247 22.4450 9.7738 -3.8353 0.1505 -36.3970 12.7433 2.7824 24.8096 -0.0000 0.0000 -3.5250 26.7940 -21.0505 7.5034 0.0000 0.0000 0.2527 -6.3377 2.5252 10.1172 -0.0000 0.0000 -20.3657 2.3898 8.9246 6.7307 -0.0000 -0.0000 -15.9656 4.5182 0.7135 7.9567 -4.4237 0.8288 14.5052 7.4381 -6.1022 -6.1753 -6.1680 0.5056 11.0133 7.1932 -2.9701 -2.3021 -22.2686 -73.9800 -0.0001 -23.7375 -0.0000 -30.3179 -2.3474 -0.5105 -0.0000 -0.0000 0.0000 -0.0000 -0.0000 0.0000 -6.0785 1.8870 -3.3313 0.1897 22.7829 74.3582 -0.0001 24.7141 0.0000 -33.6001 -1.7560 -7.6996 -0.0000 0.0000 -0.0000 -0.0000 0.0000 -0.0000
 -54.5261 33.0044 23.6812 10.1061 -4.0684 -0.4846 -35.1648 15.0187 2.6651 12.3466 -0.0000 0.0000 -2.0826 19.7223 -25.3666 6.3996 0.0000 0.0000 2.2550 -6.9034 3.0009 10.0400 -0.0000 0.0000 -20.9774 3.0963 9.7697 5.3844 0.0000 -0.0000 -16.0463 4.5500 1.0375 7.9343 -4.4627 0.8134 14.0808 7.6232 -6.0070 -6.1084 -6.0247 0.3608 10.9332 7.4590 -2.9214 -1.7707 -21.7370 -74.2428 -0.0001 -23.0295 -0.0000 -30.1629 -2.1865 -0.3400 -0.0000 -0.0000 0.0000 -0.0000 -0.0000 0.0000 -6.4024 2.0968 -3.3474 -0.7294 22.9302 73.9432 -0.0001 25.5803 0.0000 -33.3437 -1.2205 -7.7186 -0.0000 0.0000 -0.0000 -0.0000 0.0000 -0.0000
 -54.4926 32.8227 24.9842 10.4497 -4.6366 -0.7481 -33.5418 14.8142 2.1679 3.7581 0.0000 -0.0000 -1.9904 14.7307 -28.4065 7.0176 0.0000 0.0000 3.4717 -7.2051 2.8154 11.4364 -0.0000 0.0000 -21.4625 3.9137 11.0601 3.7771 -0.0000 0.0000 -16.3302 4.7486 1.2764 7.9860 -4.3235 0.6741 14.0386 7.8084 -6.0861 -6.4129 -5.8512 0.2251 11.1264 7.5362 -3.1983 -1.4180 -21.2008 -74.2362 -0.0001 -22.0182 -0.0000 -30.1369 -1.8396 -0.1965 -0.0000 0.0000 -0.0000 -0.0000 0.0000 -0.0000 -6.2360 2.3668 -3.2886 -1.4667 22.8337 73.5688 -0.0001 26.3827 0.0000 -33.6911 -0.7605 -7.8270 -0.0000 -0.0000 0.0000 -0.0000 -0.0000 0.0000
 -54.4373 32.6867 26.3371 10.9264 -5.0268 -1.0237 -33.9045 13.8083 2.0473 5.1683 -0.0000 0.0000 -2.2560 15.2207 -29.1121 6.6028 0.0000 0.0000 4.0329 -7.3672 2.4498 13.8554 -0.0000 0.0000 -21.3283 4.9396 11.2715 1.0726 0.0000 0.0000 -16.4842 4.8665 1.3773 7.6611 -4.2178 0.6583 13.8227 7.9251 -5.7454 -6.4259 -5.1747 -0.5371 11.1675 7.7556 -3.4139 -1.0967 -21.2001 -74.3290 -0.0001 -20.3408 -0.0000 -30.0103 -1.7288 -0.1721 -0.0000 -0.0000 0.0000 -0.0000 -0.0000 0.0000 -6.2596 2.2483 -3.2884 -1.4839 22.7196 73.5565 -0.0001 26.9186 0.0000 -33.5397 -0.6957 -7.9237 -0.0000 0.0000 -0.0000 -0.0000 0.0000 -0.0000
 -54.2727 32.6383 27.8070 10.9805 -5.3281 -0.0758 -32.9328 12.0561 0.4292 8.5763 -0.0000 -0.0000 -0.0419 18.7991 -23.6917 5.6650 0.0000 0.0000 4.4176 -7.7153 0.3618 17.1433 -0.0000 0.0000 -20.3535 6.4651 12.2399 -2.9405 0.0000 -0.0000 -16.6580 5.1453 0.9667 7.7422 -3.9552 -0.0647 13.6873 8.2125 -6.1358 -6.3871 -5.5672 -0.1247 11.2312 7.7637 -3.6821 -0.7709 -21.4412 -74.2361 -0.0001 -18.6247 -0.0000 -29.8037 -1.2021 -0.1008 -0.0000 -0.0000 0.0000 -0.0000 -0.0000 0.0000 -6.0032 2.0967 -3.1900 -1.0479 22.3735 73.7362 -0.0001 27.0912 0.0000 -33.6759 -0.3980 -8.0546 -0.0000 0.0000 -0.0000 -0.0000 0.0000 -0.0000
 -54.0532 32.7412 29.3179 11.3728 -4.9884 1.5235 -31.5101 7.8367 -1.8443 8.8560 -0.0000 0.0000 3.4047 21.3702 -18.7283 6.6033 -0.0000 0.0000 3.4974 -7.5444 -2.2984 21.9027 -0.0000 0.0000 -17.3938 6.9067 13.1659 -9.3855 0.0000 0.0000 -16.9778 5.1468 0.0973 7.5739 -3.9321 -1.0900 13.5152 8.3779 -6.3882 -6.1543 -5.8233 -0.1081 11.1769 7.7603 -4.2001 -0.3460 -21.6379 -73.8642 -0.0001 -16.8102 -0.0000 -29.6747 -0.7564 0.0499 -0.0000 0.0000 -0.0000 -0.0000 0.0000 -0.0000 -5.6034 1.8253 -2.7922 -0.3395 22.1800 74.0574 -0.0001 26.3558 0.0000 -34.0223 -0.6523 -8.0889 -0.0000 -0.0000 0.0000 -0.0000 -0.0000 0.0000
 -53.8358 32.9220 30.8766 11.4513 -4.4975 2.7725 -30.2211 6.7223 -3.7533 11.1660 -0.0000 0.0000 1.9320 21.8743 -15.3225 11.9604 0.0000 0.0000 1.3324 -8.7935 -4.9054 29.0661 -0.0000 0.0000 -12.3057 8.0189 13.4597 -16.4530 0.0000 0.0000 -17.1905 5.1052 -0.5372 7.3088 -3.9737 -1.9386 13.7876 8.4077 -6.6578 -5.9310 -5.8287 -0.3002 11.1595 7.4501 -4.2471 -0.2079 -21.8851 -73.9532 -0.0001 -14.8970 -0.0000 -29.4905 -0.1538 -0.1507 -0.0000 -0.0000 0.0000 -0.0000 -0.0000 0.0000 -5.2120 1.8328 -3.0448 0.4924 21.6091 75.5953 -0.0001 24.3491 0.0000 -34.2031 -0.5339 -8.1944 -0.0000 0.0000 -0.0000 -0.0000 0.0000 -0.0000
 -53.6079 33.1321 32.3550 11.2896 -3.8926 3.7027 -28.3532 6.4432 -5.4708 12.9311 -0.0000 0.0000 -0.2762 21.7738 -14.2123 14.1113 -0.0000 0.0000 -2.7194 -9.6939 -7.5588 38.6150 -0.0000 0.0000 -4.2138 8.3844 13.8868 -23.0025 0.0000 -0.0000 -17.0165 4.8756 -0.9674 7.0886 -4.2226 -2.5950 13.6397 8.6850 -7.0069 -5.3602 -5.9429 -0.4839 10.9539 7.3619 -4.0819 -0.5474 -22.1632 -74.3428 -0.0001 -13.3976 -0.0000 -29.0353 0.6063 -0.1968 -0.0000 -0.0000 0.0000 -0.0000 -0.0000 0.0000 -5.4104 1.9511 -3.6172 1.5476 21.3676 77.6401 -0.0001 21.5108 0.0000 -34.1511 -1.2861 -7.7062 -0.0000 0.0000 -0.0000 -0.0000 0.0000 -0.0000
 -53.4146 33.3089 33.7178 11.0716 -3.9566 4.3553 -25.3917 8.9381 -6.4516 12.9828 -0.0000 0.0000 -2.6183 19.5026 -13.0071 14.3225 -0.0000 0.0000 -7.8585 -7.9417 -9.3461 49.4387 -0.0000 0.0000 1.0006 5.7459 12.8541 -6.2829 0.0000 0.0000 -16.7077 4.7714 -1.1773 6.9754 -4.3389 -2.9780 13.6280 8.8494 -7.0973 -5.2539 -5.5792 -1.2453 10.6883 7.0570 -3.8294 -0.9336 -22.2562 -74.6014 -0.0000 -12.9873 -0.0000 -28.8783 0.9685 -0.0124 -0.0000 -0.0000 0.0000 -0.0000 -0.0000 0.0000 -5.7034 2.4999 -4.0980 2.7209 21.8797 79.4392 -0.0001 18.7646 0.0000 -34.3762 -2.5599 -6.9563 -0.0000 0.0000 -0.0000 -0.0000 0.0000 -0.0000
 -53.2522 33.4474 34.9467 10.9448 -4.3908 5.0381 -22.3594 11.3360 -7.3452 12.4962 -0.0000 0.0000 -4.5373 17.6926 -12.7831 14.4329 -0.0000 0.0000 -13.4043 -5.0611 -10.3822 59.1555 -0.0000 0.0000 5.2686 1.9796 15.0554 13.4357 -0.0000 0.0000 -16.4015 4.5947 -1.4600 7.0427 -4.4939 -3.2210 13.7339 9.1851 -7.2403 -5.4780 -5.0092 -1.7931 10.4770 6.7723 -3.7250 -1.5600 -22.3864 -74.4769 -0.0001 -13.4314 -0.0000 -29.2679 0.6669 0.1085 -0.0000 0.0000 -0.0000 -0.0000 0.0000 -0.0000 -5.9347 3.0667 -4.0807 3.7487 23.2084 80.4975 -0.0001 16.7977 0.0000 -33.5750 -4.0963 -6.6811 -0.0000 0.0000 -0.0000 -0.0000 0.0000 -0.0000
 -53.1349 33.5779 36.1462 10.7625 -4.2302 5.0959 -19.6879 9.6977 -8.0664 11.5758 -0.0000 0.0000 -6.0898 18.7467 -12.9656 14.5430 -0.0000 0.0000 -18.5264 -3.2432 -10.3541 66.6707 -0.0000 0.0000 2.7731 -1.4765 13.8031 14.0975 -0.0000 0.0000 -16.2435 4.0698 -1.5832 7.2656 -5.0011 -3.1213 13.9283 9.4995 -7.3142 -5.5022 -4.3736 -2.0922 9.8948 6.5143 -3.5510 -1.9403 -23.2115 -74.0664 -0.0001 -14.2841 -0.0000 -29.3778 0.0921 -0.0234 -0.0000 0.0000 -0.0000 -0.0000 0.0000 -0.0000 -6.2287 2.8701 -3.6425 5.0488 25.0350 80.8402 -0.0001 15.9454 0.0000 -32.2399 -4.9271 -6.8409 -0.0000 0.0000 -0.0000 -0.0000 0.0000 -0.0000
